<?xml version="1.0" encoding="UTF-8" standalone="no"?><!DOCTYPE svg PUBLIC "-//W3C//DTD SVG 1.1//EN" "http://www.w3.org/Graphics/SVG/1.1/DTD/svg11.dtd"><svg width="100%" height="100%" viewBox="0 0 928 233" version="1.1" xmlns="http://www.w3.org/2000/svg" xmlns:xlink="http://www.w3.org/1999/xlink" xml:space="preserve" xmlns:serif="http://www.serif.com/" style="fill-rule:evenodd;clip-rule:evenodd;stroke-linejoin:round;stroke-miterlimit:2;"><rect id="RAKA-ASHOK-SIGNATURE" serif:id="RAKA ASHOK SIGNATURE" x="0" y="0.433" width="928" height="232.5" style="fill:none;"/><g><g><g><g><path d="M380.843,190.433c-3.602,3.608 -7.979,6.875 -13.266,9.646c-6.561,3.438 -13.7,5.575 -17.149,6.185c-13.652,2.415 -27.648,-4.088 -34.37,-16.781c-7.863,-14.85 -3.374,-33.707 11.527,-43.277c0.974,-0.626 2.791,-1.74 3.578,-2.111c1.242,-0.585 21.696,-8.681 37.383,4.838c4.057,3.496 6.722,8.053 7.182,8.84c1.808,3.092 2.355,4.808 3.631,7.472c0.107,0.222 1.285,3.082 3.368,6.851c2.958,-6.616 5.433,-16.544 4.008,-30.555c-0.724,-7.125 -2.388,-13.747 -3.353,-16.18c-2.827,-7.124 -7.371,-8.881 -7.922,-9.118c-14.037,-6.067 -38.966,14.429 -39.356,14.614c-0.596,0.283 -1.149,0.686 -1.789,0.849c-0.292,0.075 -1.977,0.506 -3.736,-0.524c-0.268,-0.158 -1.814,-1.064 -2.339,-3.104c-0.075,-0.292 -0.507,-1.977 0.525,-3.736c0.628,-1.068 0.694,-1.028 1.694,-1.762c23.856,-17.518 36.919,-17.181 41.549,-16.729c16.86,1.646 20.744,18.539 21.094,19.859c3.409,12.852 6.34,36.212 -4.749,55.017c8.583,10.997 15.272,9.375 17.661,8.649c6.424,-1.95 11.757,-8.86 11.875,-8.955c0.513,-0.414 0.958,-0.934 1.542,-1.241c0.267,-0.141 1.806,-0.95 3.756,-0.355c0.297,0.091 2.012,0.615 2.994,2.478c0.951,1.805 0.442,3.467 0.354,3.756c-0.375,1.225 -0.464,1.193 -1.29,2.175c-3.586,4.259 -13.673,16.134 -28.056,13.144c-6.531,-1.357 -12.088,-5.552 -16.346,-9.945Zm-5.744,-6.928c-1.57,-2.19 -2.657,-3.975 -3.198,-4.861c-1.865,-3.056 -3.765,-6.631 -4.593,-8.542c-1.151,-2.657 -2.255,-6.209 -5.173,-9.818c-3.993,-4.937 -8.574,-6.353 -10.934,-6.909c-5.152,-1.212 -11.008,-0.602 -15.539,0.806c-2.583,1.363 -6.983,3.616 -10.302,9.22c-6.337,10.7 -2.847,25.397 9.441,31.726c4.595,2.368 10.404,3.276 16.188,1.748c13.384,-3.535 20.656,-9.741 24.11,-13.37Z" style="fill:#fff;"/><g><path d="M536.317,174.07c-4.286,7.541 -10.26,14.536 -18.447,20.384c-9.73,6.951 -20.278,10.597 -28.634,12.665c-20.442,5.061 -41.446,-6.735 -47.661,-26.991c-4.081,-13.298 -1.125,-28.924 10.204,-40.078c1.188,-1.17 5.628,-5.568 13.592,-11.097c2.073,-1.438 7.987,-5.198 15.386,-6.783c13.999,-2.998 27.023,3.093 34.503,21.943c0.206,0.518 2.036,6.205 6.439,11.657c2.302,2.85 5.159,5.471 8.717,7.184c9.133,-22.199 4.029,-47.962 1.327,-57.87c-1.781,-6.527 -6.453,-12.201 -12.086,-14.407c-18.053,-7.067 -47.747,15.86 -61.522,28.913c-0.504,0.478 -1.295,1.251 -1.388,1.342c0.137,-0.135 -0.86,0.842 -2.014,1.306c-0.339,0.136 -2.291,0.92 -4.563,-0.034c-0.346,-0.146 -2.344,-0.985 -3.297,-3.346c-0.136,-0.339 -0.923,-2.289 0.034,-4.563c0.576,-1.369 0.65,-1.341 1.728,-2.362c2.141,-2.028 13.649,-12.708 27.957,-21.469c11.399,-6.979 34.996,-19.312 52.586,-7.104c5.242,3.638 10.677,10.139 12.98,18.939c3.424,13.078 7.501,39.239 -1.539,62.665c5.38,-0.249 11.791,-2.333 19.438,-7.207c2.89,-1.841 5.476,-3.765 7.838,-5.67c-6.038,-12.837 -11.005,-28.987 -3.522,-40.107c5.474,-8.136 15.787,-10.028 22.025,-9.763l-0.099,-0.004c4.001,0.155 16.165,0.644 19.443,9.601c1.962,5.362 1.213,14.744 -16.173,32.829c-1.103,1.147 -2.379,2.445 -3.904,3.925c8.579,-4.422 18.796,-11.491 27.503,-22.588c7.7,-9.813 11.057,-18.834 11.504,-19.733c0.118,-0.238 0.226,-0.481 0.369,-0.705c1.146,-1.791 2.946,-2.047 3.252,-2.091c2.107,-0.3 3.477,0.897 3.71,1.101c1.604,1.403 1.59,3.224 1.587,3.534c-0.002,0.266 -0.027,0.533 -0.075,0.796c-2.521,13.943 -5.046,27.885 -7.575,41.827c1.946,0.357 3.909,0.415 5.852,0.099c14.65,-2.384 23.653,-24.17 28.163,-37.261c1.449,-4.204 2.467,-7.708 2.673,-8.402c0.002,-0.007 0.003,-0.01 0.003,-0.01c0.104,-0.277 0.192,-0.562 0.323,-0.827c1.053,-2.126 3.023,-2.606 3.358,-2.687c2.305,-0.562 3.94,0.638 4.217,0.842c1.913,1.404 2.046,3.428 2.069,3.771c0.019,0.295 0.013,0.593 -0.02,0.887c-0.009,0.086 -0.035,0.326 -0.18,0.879l0.005,0.001c-0.021,0.069 -0.041,0.14 -0.062,0.211c-0.018,0.063 -0.036,0.129 -0.056,0.199c-0.076,0.26 -0.154,0.53 -0.235,0.808c-1.792,6.267 -4.761,17.748 -7.711,32.481c7.334,-10.974 16.745,-19.148 27.937,-21.47c2.368,-4.323 4.189,-7.3 4.505,-7.772c4.171,-6.242 12.163,-10.976 21.892,-9.361c9.932,1.649 15.537,6.641 18.608,11.484c12.324,-17.525 24.662,-35.039 37.014,-52.544c1.242,-1.76 3.064,-1.962 3.376,-1.996c2.141,-0.238 3.505,1 3.738,1.212c1.599,1.452 1.574,3.298 1.569,3.613c-0.011,0.821 -0.25,1.47 -0.295,1.591c-0.227,0.618 -0.266,0.599 -0.594,1.171c-28.957,50.441 -38.04,100.094 -41.12,134.556c-0.164,1.834 -0.377,3.536 -0.83,9.058c-0.031,0.37 -0.204,2.489 -2.12,4.117c-0.591,0.502 -1.288,0.902 -2.024,1.141c-0.358,0.116 -2.422,0.786 -4.687,-0.38c-2.193,-1.13 -2.842,-3.13 -2.955,-3.477c-0.486,-1.501 -0.357,-1.532 -0.226,-3.107c0.565,-6.819 0.954,-10.037 1.608,-14.931c3.674,-27.474 10.152,-55.017 20.363,-82.03l-9.753,13.738c-5.588,19.767 -18.664,60.85 -41.866,65.142c-8.15,1.508 -13.987,-2.287 -15.465,-3.476c-0.142,-0.114 -0.297,-0.214 -0.424,-0.344c-0.226,-0.23 -0.893,-1.134 -0.968,-1.235c-4.617,-6.26 -10.792,-20.628 4.41,-53.785c-4.621,2.837 -10.292,7.972 -15.878,17.368c-4.662,7.843 -8.345,17.166 -10.806,26.726c-0.666,2.586 -1.206,5.045 -1.644,7.356c-0.734,6.587 -1.345,13.374 -1.779,20.275c-0.007,0.115 -0.066,1.04 -0.156,1.427c-0.072,0.307 -0.494,2.11 -2.406,3.133c-0.279,0.149 -1.912,1.022 -3.942,0.26c-0.295,-0.111 -2.029,-0.761 -2.797,-2.789c-0.096,-0.253 -0.17,-0.516 -0.222,-0.782c-0.066,-0.338 -0.156,-0.801 -0.093,-4.309c0.09,-5.013 0.598,-10.341 1.503,-15.779c0.963,-9.516 2.527,-22.055 5.065,-36.545c-4.498,5.167 -10.325,9.764 -17.67,11.446c-3.818,0.874 -7.533,0.844 -11.06,0.187c-2.67,14.701 -5.344,29.401 -8.023,44.101c-0.388,2.13 -1.963,3.09 -2.233,3.254c-0.232,0.141 -0.476,0.263 -0.728,0.363c-0.516,0.205 -0.518,0.203 -1.07,0.272c-0.664,0.082 -0.667,0.114 -1.33,0.027c-2.151,-0.281 -3.192,-1.815 -3.37,-2.077c-0.462,-0.682 -0.64,-1.354 -0.673,-1.48c-0.103,-0.391 -0.183,-1.274 -0.193,-1.386c-1.476,-16.415 -4.023,-41.188 -6.017,-53.335c-6.589,4.554 -12.968,7.721 -18.281,9.888c2.287,5.091 3.808,9.499 4.122,10.408c4.03,11.679 6.041,23.696 -0.894,29.149c-8.221,6.465 -22.858,-1.31 -34.932,-9.029c-5.865,-3.576 -10.187,-9.804 -8.245,-16.642c-1.97,0.169 -3.962,0.17 -5.963,-0.032Zm-10.085,-2.885c-11.638,-5.708 -17.297,-17.77 -19.04,-22.215c-0.477,-1.214 -3.518,-10.224 -9.839,-14.925c-2.265,-1.684 -8.918,-6.129 -21.134,-0.508c-3.319,1.527 -5.552,3.128 -8.054,4.968c-0.891,0.655 -6.344,4.665 -10.494,9.011c-10.627,11.132 -11.254,28.964 -0.704,40.86c7.216,8.136 18.623,12.051 29.896,9.219c22.317,-5.608 33.487,-16.922 39.369,-26.41Zm48.875,-25.306c10.07,-9.112 20.921,-21.267 22.124,-28.645c0.388,-2.378 -0.46,-3.3 -2.006,-4.109c-3.011,-1.575 -8.774,-1.9 -11.291,-1.728c-4.049,0.277 -8.538,1.62 -11.215,4.712c-5.929,6.847 -1.889,20.047 2.388,29.77Zm41.897,1.213l2.687,-14.52c-2.576,3.185 -5.569,6.447 -9.045,9.652c0.395,0.365 0.828,0.752 1.301,1.157c1.592,1.362 3.289,2.623 5.057,3.711Zm114.294,-23.574c-0.529,-2.044 -2.073,-5.942 -6.461,-8.668c-0.591,-0.366 -3.488,-2.166 -8.224,-2.816c-4.941,-0.677 -9.912,1.619 -12.564,6.015c-1.072,1.778 -2.075,3.515 -2.995,5.164c5.951,4.292 18.063,11.262 26.004,5.254c2.018,-1.526 3.375,-3.477 4.24,-4.949Zm-34.597,7.941c-1.038,2.084 -1.722,3.552 -1.981,4.108c-4.9,10.521 -7.933,19.94 -8.896,27.739c-1.299,10.535 1.499,15.479 3.202,17.759c1.296,0.827 4.808,2.582 9.654,0.922c5.473,-1.874 16.705,-9.502 28.142,-43.116c-2.559,0.871 -5.245,1.221 -7.976,1.128c-8.694,-0.296 -17.09,-5.046 -22.145,-8.54Zm-85.48,23.804c0.484,3.629 1.043,8.209 1.679,14.003l2.184,-11.8c-1.339,-0.672 -2.629,-1.414 -3.863,-2.203Zm-37.654,7.983c-2.332,0.677 -3.986,1.038 -4.733,1.188c-2.475,0.967 -14.511,5.797 -17.381,11.192c-0.524,0.986 -1.285,2.74 1.431,5.455c1.099,1.099 1.939,1.595 3.775,2.755c1.078,0.681 14.906,9.634 21.604,9.211c1.444,-0.091 1.94,-0.541 2.305,-1.797c1.537,-5.274 -2.23,-17.574 -7.001,-28.004Zm-116.82,-42.314c-0.012,0.012 -0.012,0.011 0,-0Z" style="fill:#fff;"/><path d="M920.276,117.891c0.218,0.423 1.469,2.853 0.486,5.922c-0.145,0.452 -0.995,3.107 -3.833,4.528c-20.218,10.118 -32.456,15.56 -50.805,23.112c-16.992,6.995 -16.953,7.083 -31.416,13.207c-0.498,0.211 -5.457,2.353 -11.887,5.034c-14.794,6.168 -46.126,19.463 -63.598,20.579c-3.087,0.197 -12.014,0.651 -15.315,-5.993c-3.293,-6.628 1.208,-16.325 10.454,-29.164c2.194,-3.046 10.213,-14.782 24.569,-29.673c1.029,-1.067 6.772,-7.025 13.271,-12.94c0.35,-0.318 2.367,-2.154 5.584,-1.964c0.993,0.058 1.996,0.309 2.891,0.744c0.007,0.003 2.478,1.866 2.48,1.869c0.521,0.893 1.222,1.702 1.562,2.679c0.327,0.94 0.458,1.965 0.4,2.959c-0.059,0.988 -0.307,1.987 -0.744,2.876c-0.894,1.82 -1.056,1.722 -2.582,3.058c-5.128,4.488 -18.963,16.951 -26.626,24.243c-8.418,8.01 -12.413,12.205 -16.427,17.442c-7.508,9.798 -7.177,13.645 -6.684,14.156c0.14,0.145 1.823,1.765 9.557,0.832c18.028,-2.174 48.674,-15.459 56.856,-19.023c0.119,-0.052 7.842,-3.452 14.85,-6.814c20.068,-9.628 28.01,-14.628 48.476,-25.931c11.156,-6.161 21.928,-11.857 28.034,-15.084c2.782,-1.471 5.469,-0.61 5.922,-0.465c3.069,0.983 4.308,3.391 4.525,3.811Z" style="fill:#fff;"/></g><path d="M180.265,125.311c0.612,0.248 1.282,0.384 1.835,0.744c0.253,0.165 1.71,1.115 2.142,3.106c0.066,0.303 0.446,2.054 -0.701,3.82c-0.164,0.253 -1.111,1.711 -3.105,2.142c-1.231,0.266 -1.249,0.203 -2.479,-0.067c-18.821,-4.135 -22.088,-27.176 3.173,-37.031c0.969,-0.378 5.77,-2.251 12.578,-3.341c2.432,-0.39 12.882,-1.606 23.365,2.226c4.061,1.484 14.931,6.026 20.631,19.555c4.349,10.324 4.603,22.701 3.372,34.455c-0.308,2.944 -1.203,9.481 -2.382,14.75c-0.707,3.161 -1.383,5.785 -1.722,7.077c-0.046,0.175 -0.011,0.186 -0.927,2.791c-1.856,5.279 -2.74,7.345 -3.545,9.293c-4.034,9.762 -6.964,15.743 -8.773,19.684c-0.618,1.347 -0.448,1.475 -1.514,2.503c-0.217,0.21 -1.469,1.416 -3.509,1.387c-1.028,-0.015 -1.795,-0.348 -1.94,-0.411c-0.281,-0.122 -1.894,-0.821 -2.659,-2.755c-0.235,-0.596 -0.363,-1.248 -0.354,-1.889c0.01,-0.659 0.237,-1.299 0.408,-1.937c0.046,-0.17 0.101,-0.149 0.834,-2.048c0.472,-1.224 2.833,-7.345 5.365,-15.496c0.854,-2.748 0.831,-2.753 2.393,-8.226c0.997,-3.491 1.628,-6.084 1.64,-6.122c0.228,-0.727 1.228,-3.634 2.527,-8.362c0.658,-2.395 4.437,-14.534 4.349,-26.616c-0.035,-4.742 -0.636,-12.433 -4.696,-19.146c-1.436,-2.376 -6.972,-11.17 -22.929,-12.147c-6.068,-0.372 -10.004,0.594 -10.947,0.792c-17.686,3.73 -22.869,12.974 -18.97,17.905c2.052,2.597 5.484,3.186 6.54,3.364Z" style="fill:#fff;"/><path d="M9.694,222.251c-0.276,-0.133 -1.86,-0.898 -2.545,-2.862c-0.211,-0.604 -0.312,-1.261 -0.276,-1.901c0.086,-1.565 0.345,-1.503 0.978,-2.936c2.186,-4.944 4.365,-9.892 6.523,-14.849c1.817,-4.173 3.586,-8.366 5.405,-12.538c1.309,-3.004 2.563,-6.034 3.979,-8.989c1.561,-3.26 3.278,-6.443 4.948,-9.648c2.275,-4.365 4.611,-8.697 6.886,-13.062c9.993,-19.169 9.968,-19.18 19.675,-38.495c3.868,-7.696 5.855,-11.43 19.661,-40.175c2.805,-5.84 5.633,-11.669 8.407,-17.524c7.327,-15.465 14.598,-30.958 21.897,-46.437c0.131,-0.277 0.881,-1.868 2.845,-2.553c0.606,-0.211 1.265,-0.311 1.906,-0.275c2.116,0.121 3.318,1.469 3.526,1.703c0.201,0.225 1.365,1.529 1.243,3.562c-0.039,0.658 -0.213,1.319 -0.5,1.912c-2.47,5.096 -2.809,4.928 -31.237,63.516c-13.921,28.69 -15.608,32.568 -19.229,40.384c-9.087,19.614 -9.111,19.602 -17.905,39.349c-2.003,4.496 -3.942,9.02 -5.945,13.516c-1.471,3.302 -2.896,6.626 -4.477,9.876c-1.433,2.947 -3.026,5.813 -4.563,8.706c-2.136,4.019 -4.32,8.013 -6.457,12.031c-4.073,7.658 -4.288,7.545 -8.059,15.357c-0.134,0.276 -0.898,1.86 -2.862,2.545c-1.964,0.685 -3.548,-0.08 -3.824,-0.213Z" style="fill:#fff;"/><path d="M129.873,27.76c-18.785,-7.127 -48.95,-15.304 -70.946,2.431c-29.688,23.937 -28.166,81.358 -27.234,93.117c0.083,1.046 0.098,1.061 -0.227,2.058c-0.63,1.938 -2.186,2.728 -2.455,2.865c-1.887,0.957 -3.599,0.396 -3.896,0.299c-0.286,-0.094 -1.943,-0.637 -2.864,-2.456c-0.556,-1.099 -0.485,-1.134 -0.565,-2.363c-0.45,-6.924 -0.185,-14.98 -0.142,-16.282c1.151,-34.949 10.16,-54.328 12.496,-59.259c12.204,-25.753 38.716,-50.933 96.45,-29.773c2.705,0.992 2.988,1.129 3.238,1.25c5.607,2.714 11.652,6.426 12.637,7.031c25.968,15.942 33.807,29.684 35.864,33.426c6.631,12.068 9.457,29.819 -12.73,47.609c-9.789,7.85 -25.233,16.336 -50.697,24.932c2.312,0.498 4.26,1.085 5.918,1.702c1.83,0.681 3.559,1.647 3.857,1.813c3.186,1.781 17.247,10.142 7.634,31.499c-2.218,4.927 -4.804,8.701 -5.637,10.052c-5.392,8.739 -8.627,17.023 -7.806,20.378c-0.005,0.004 -0.01,0.007 -0.015,0.01c0.627,0.351 5.46,1.877 23.179,-6.671c3.363,-1.622 4.549,-2.33 4.651,-2.36c0.633,-0.186 1.243,-0.497 1.9,-0.557c0.3,-0.028 2.031,-0.186 3.605,1.112c1.624,1.341 1.788,3.128 1.816,3.438c0.187,2.031 -0.92,3.372 -1.112,3.605c-0.768,0.93 -0.824,0.883 -1.891,1.446c-13.209,6.966 -27.219,13.441 -36.007,10.103c-2.452,-0.931 -8.619,-4.236 -7.073,-14.964c0.109,-0.757 0.92,-7.94 8.266,-20.977c1.373,-2.436 2.026,-3.32 3.389,-6.037c0.969,-1.93 5.154,-10.396 2.843,-15.111c-0.976,-1.991 -3.005,-3.591 -7.453,-5.085c-3.226,-1.083 -11.352,-3.266 -30.375,-1.782c-11.182,0.872 -21.737,2.758 -27.821,3.982c-3.393,0.741 -5.522,1.182 -5.525,1.183c-0.321,0.054 -0.645,0.099 -0.97,0.107c-2.602,0.063 -4.095,-1.587 -4.349,-1.867c-1.748,-1.931 -1.473,-4.139 -1.426,-4.515c0.321,-2.585 2.174,-3.818 2.489,-4.028c0.271,-0.181 0.558,-0.338 0.855,-0.47c0.451,-0.199 1.507,-0.466 1.64,-0.5c1.1,-0.278 11.281,-2.847 23.863,-4.791c24.819,-5.506 57.674,-14.515 79.396,-28.059c14.873,-9.274 23.326,-19.89 20.927,-32.322c-4.019,-20.825 -36.32,-39.653 -47.697,-45.219Z" style="fill:#fff;"/><path d="M231.414,210.963c-0.314,-0.061 -2.115,-0.413 -3.328,-2.216c-0.373,-0.556 -0.649,-1.193 -0.782,-1.849c-0.019,-0.09 -0.007,-0.392 0.052,-0.893c0.129,-1.079 0.461,-3.153 1.028,-6.053c3.235,-16.54 14.143,-59.979 38.723,-98.591c1.127,-1.771 2.83,-2.373 3.138,-2.458c0.645,-0.18 1.338,-0.24 2.003,-0.159c2.187,0.264 3.33,1.736 3.529,1.992c1.3,1.675 1.092,3.482 1.056,3.795c-0.078,0.676 -0.358,1.316 -0.611,1.947c-0.171,0.427 -8.041,12.563 -17.016,32.298c-4.487,9.866 -5.947,14.149 -7.904,19.78c-1.589,4.571 -13.686,47.669 -13.975,49.034c-0.071,0.339 -0.365,0.886 -0.837,1.444c-0.69,0.816 -1.757,1.659 -3.007,1.915c-1.027,0.209 -1.04,0.215 -2.069,0.014Zm0.085,-0.434c0.943,0.185 0.955,0.179 1.896,-0.013c1.148,-0.235 2.124,-1.018 2.758,-1.767c0.411,-0.486 0.68,-0.955 0.742,-1.25c0.289,-1.367 12.399,-44.512 13.99,-49.088c1.961,-5.642 3.423,-9.933 7.919,-19.818c8.969,-19.724 16.837,-31.853 17.008,-32.28c0.238,-0.595 0.509,-1.196 0.582,-1.832c0.033,-0.287 0.224,-1.941 -0.966,-3.474c-0.183,-0.234 -1.229,-1.582 -3.233,-1.825c-0.608,-0.073 -1.242,-0.018 -1.832,0.146c-0.283,0.079 -1.845,0.64 -2.883,2.27c-24.543,38.552 -35.432,81.924 -38.662,98.439c-0.565,2.884 -0.895,4.947 -1.023,6.021c-0.05,0.422 -0.074,0.676 -0.059,0.752c0.123,0.6 0.376,1.182 0.717,1.69c1.11,1.651 2.759,1.973 3.046,2.029Z" style="fill:#fff;"/><path d="M345.382,203.716c-0.02,0.305 -0.13,2.06 -1.691,3.436c-0.48,0.423 -1.05,0.765 -1.656,0.973c-1.451,0.5 -1.491,0.256 -3.023,0.211c-11.678,-0.342 -11.678,-0.285 -23.347,-0.83c-0.632,-0.029 -7.577,-0.566 -7.792,-0.6c-2.534,-0.399 -7.546,-1.288 -8.501,-1.479c-0.075,-0.015 -7.02,-1.447 -12.537,-2.875c-16.762,-4.341 -27.901,-9.151 -34.062,-15.301c-5.568,-5.559 -11.041,-16.059 2.688,-31.034c2.634,-2.873 12.506,-13.455 41.272,-28.504c5.941,-3.108 10.009,-4.99 10.021,-4.993c0.639,-0.157 1.265,-0.427 1.922,-0.446c2.032,-0.06 3.299,1.158 3.517,1.367c0.227,0.219 1.539,1.479 1.591,3.616c0.008,0.301 0.051,2.061 -1.367,3.516c-1.043,1.07 -1.216,0.826 -6.868,3.422c-23.046,10.587 -44.866,25.066 -49.021,36.361c-1.598,4.344 -0.684,8.342 6.435,12.665c8.429,5.12 22.732,8.202 37.532,9.802c2.177,0.235 3.798,0.479 8.305,0.925c1.205,0.119 1.198,0.154 2.392,0.357c3.835,0.652 4.336,0.682 6.671,1.08c0.943,0.161 4.704,0.803 11.827,1.773c4.911,0.668 9.019,1.076 9.969,1.173c1.518,0.155 1.588,-0.084 2.956,0.59c0.271,0.134 1.83,0.902 2.495,2.83c0.327,0.95 0.335,0.962 0.272,1.965Z" style="fill:#fff;"/></g></g><path d="M185.716,145.901c1.382,-0.116 17.909,-1.985 32.01,5.953c19.561,11.012 19.183,32.759 -1.693,45.42c-6.915,4.193 -16.031,7.335 -26.683,8.278c-4.67,0.413 -9.07,0.079 -9.856,0.019c-20.235,-1.537 -35.258,-12.616 -35.402,-27.944c-0.015,-1.596 -0.025,-7.508 4.756,-14.488c0.035,-0.052 1.681,-2.362 4.721,-5.035c1.017,-0.893 4.265,-3.776 10.392,-6.649c9.563,-4.483 18.393,-5.177 21.755,-5.554Zm0.972,9.965c-0.286,0.026 -1.231,0.126 -3.061,0.496c-12.556,2.539 -19.206,8.867 -19.607,9.207c-3.02,2.56 -4.301,4.719 -4.704,5.245c-0.71,0.929 -2.759,3.695 -2.966,7.479c-0.524,9.596 13.323,18.684 32.16,17.836c0.681,-0.031 14.347,-0.1 25.449,-8.218c6.106,-4.465 11.13,-11.402 8.204,-18.901c-3.277,-8.398 -17.326,-15.375 -35.385,-13.153c-0.003,0.001 -0.006,0.001 -0.01,0.001c-0.029,0.004 -0.055,0.007 -0.08,0.008Z" style="fill:#fff;"/><path d="M231.457,210.746c-0.301,-0.058 -2.026,-0.395 -3.187,-2.123c-0.358,-0.531 -0.622,-1.141 -0.75,-1.769c-0.282,-1.383 9.072,-57.147 39.773,-105.374c1.083,-1.701 2.716,-2.283 3.011,-2.365c0.618,-0.172 1.281,-0.229 1.917,-0.152c2.096,0.254 3.191,1.663 3.381,1.909c1.245,1.604 1.046,3.334 1.011,3.634c-0.075,0.656 -0.35,1.276 -0.596,1.889c-0.171,0.427 -8.04,12.56 -17.012,32.289c-4.492,9.876 -5.953,14.163 -7.912,19.8c-1.589,4.573 -13.693,47.694 -13.982,49.06c-0.167,0.793 -1.674,2.78 -3.672,3.188c-0.984,0.201 -0.997,0.207 -1.982,0.014Z" style="fill:#fff;"/></g></g></svg>