<?xml version="1.0" encoding="UTF-8" standalone="no"?><!DOCTYPE svg PUBLIC "-//W3C//DTD SVG 1.1//EN" "http://www.w3.org/Graphics/SVG/1.1/DTD/svg11.dtd"><svg width="100%" height="100%" viewBox="0 0 2130 571" version="1.1" xmlns="http://www.w3.org/2000/svg" xmlns:xlink="http://www.w3.org/1999/xlink" xml:space="preserve" xmlns:serif="http://www.serif.com/" style="fill-rule:evenodd;clip-rule:evenodd;stroke-linejoin:round;stroke-miterlimit:2;"><rect id="Artboard8" x="-1929.2" y="-1604.17" width="6000" height="3750" style="fill:none;"/><g><g><path d="M1053.11,516.202l0,-231.533c73.601,16.538 197.123,32.092 336.103,32.154c138.98,-0.062 262.502,-15.616 336.103,-32.154l-0,231.533c-73.601,-16.539 -197.123,-32.093 -336.103,-32.154c-138.98,0.061 -262.502,15.615 -336.103,32.154Z" style="fill:#fff;"/><g><g><g><path d="M390.462,22.312l156.733,-0c47.607,-0 82.694,6.638 105.261,19.915c22.567,13.277 33.851,32.76 33.851,58.45c-0,33.462 -19.012,56.237 -57.036,68.326l66.774,84.842l-121.028,-0l-48.689,-74.803l-30.604,-0l-0,74.803l-105.262,-0l0,-231.533Zm152.096,101.68c11.747,0 20.867,-1.727 27.359,-5.181c6.492,-3.454 9.737,-8.959 9.737,-16.515c0,-7.556 -3.245,-13.061 -9.737,-16.515c-6.492,-3.454 -15.612,-5.181 -27.359,-5.181l-46.834,-0l-0,43.392l46.834,0Z" style="fill:#fff;fill-rule:nonzero;"/><path d="M896.378,163.498l-29.677,-71.24l-30.141,71.24l59.818,0Zm-100.16,-141.186l141.43,-0l108.044,231.533l-111.753,-0l-14.375,-34.649l-106.189,-0l-14.839,34.649l-110.826,-0l108.508,-231.533Z" style="fill:#fff;fill-rule:nonzero;"/><path d="M1053.11,22.312l105.261,-0l0,68.326l78.831,-68.326l125.2,-0l-116.39,97.47l123.346,134.063l-120.564,-0l-72.338,-82.899l-18.085,14.572l0,68.327l-105.261,-0l0,-231.533Z" style="fill:#fff;fill-rule:nonzero;"/><path d="M1576.16,163.498l-29.678,-71.24l-30.141,71.24l59.819,0Zm-100.161,-141.186l141.431,-0l108.043,231.533l-111.753,-0l-14.375,-34.649l-106.189,-0l-14.838,34.649l-110.826,-0l108.507,-231.533Z" style="fill:#fff;fill-rule:nonzero;"/></g><g><g><path d="M263.374,424.151l-29.677,-71.241l-30.141,71.241l59.818,-0Zm-100.16,-141.187l141.43,0l108.044,231.533l-111.754,0l-14.374,-34.649l-106.189,0l-14.839,34.649l-110.826,0l108.508,-231.533Z" style="fill:#fff;fill-rule:nonzero;"/><path d="M508.211,430.951c3.401,20.941 18.703,31.411 45.907,31.411c10.202,0 18.548,-1.241 25.04,-3.724c6.492,-2.483 9.738,-6.422 9.738,-11.819c0,-2.375 -0.618,-4.534 -1.855,-6.477c-1.236,-1.943 -3.864,-3.778 -7.883,-5.505c-4.018,-1.727 -9.969,-3.4 -17.852,-5.019c-7.883,-1.619 -18.317,-3.4 -31.301,-5.343c-22.257,-3.023 -41.192,-6.477 -56.804,-10.363c-15.611,-3.885 -28.363,-8.635 -38.255,-14.248c-9.893,-5.613 -17.157,-12.305 -21.795,-20.077c-4.637,-7.771 -6.955,-17.162 -6.955,-28.172c-0,-11.01 3.169,-20.995 9.506,-29.954c6.337,-8.959 15.457,-16.677 27.359,-23.153c11.901,-6.477 26.431,-11.496 43.588,-15.058c17.157,-3.562 36.71,-5.343 58.659,-5.343c23.803,0 44.747,2.159 62.832,6.477c18.085,4.317 33.232,10.308 45.443,17.972c12.211,7.663 21.485,16.784 27.823,27.363c6.337,10.578 9.969,22.235 10.897,34.972l-108.508,0c-1.236,-9.282 -5.178,-16.568 -11.824,-21.858c-6.647,-5.289 -15.534,-7.933 -26.663,-7.933c-9.893,-0 -17.621,1.403 -23.186,4.21c-5.564,2.806 -8.346,6.584 -8.346,11.333c-0,5.397 4.096,9.661 12.288,12.791c8.192,3.131 22.799,5.883 43.82,8.258c25.04,2.806 45.675,6.476 61.905,11.01c16.23,4.533 29.136,9.822 38.72,15.867c9.583,6.045 16.307,12.899 20.171,20.563c3.864,7.664 5.796,16.137 5.796,25.42c0,11.442 -3.246,21.804 -9.738,31.087c-6.492,9.283 -15.843,17.162 -28.054,23.639c-12.211,6.476 -27.127,11.442 -44.748,14.896c-17.62,3.454 -37.56,5.181 -59.818,5.181c-24.731,-0 -46.602,-2.051 -65.614,-6.153c-19.012,-4.102 -35.01,-9.984 -47.994,-17.648c-12.984,-7.664 -22.953,-16.947 -29.909,-27.849c-6.956,-10.902 -10.742,-23.153 -11.361,-36.754l108.971,0Z" style="fill:#fff;fill-rule:nonzero;"/><path d="M715.488,282.964l105.261,0l0,85.813l83.004,0l-0,-85.813l105.261,0l0,231.533l-105.261,0l-0,-88.079l-83.004,-0l0,88.079l-105.261,0l0,-231.533Z" style="fill:#fff;fill-rule:nonzero;"/><path d="M1770.65,284.535l105.261,-0l0,68.326l78.83,-68.326l125.201,-0l-116.39,97.47l123.346,134.063l-120.564,-0l-72.338,-82.899l-18.085,14.572l0,68.327l-105.261,-0l-0,-231.533Z" style="fill:#fff;fill-rule:nonzero;"/></g></g></g></g></g></g></svg>